<svg xmlns="http://www.w3.org/2000/svg" xmlns:xlink="http://www.w3.org/1999/xlink" width="1200" height="4000" viewBox="0 0 1200 4000">
  <defs>
    <linearGradient id="page-bg" x1="0" y1="0" x2="1" y2="1">
      <stop offset="0" stop-color="#f4f8fc"/>
      <stop offset="1" stop-color="#dce7f1"/>
    </linearGradient>
    <linearGradient id="bezel" x1="0" y1="0" x2="0" y2="1">
      <stop offset="0" stop-color="#20252b"/>
      <stop offset="1" stop-color="#12161b"/>
    </linearGradient>
    <filter id="shadow" x="-20%" y="-20%" width="140%" height="150%">
      <feDropShadow dx="0" dy="18" stdDeviation="18" flood-color="#52697c" flood-opacity="0.32"/>
    </filter>
    <clipPath id="screen-clip">
      <rect x="0" y="0" width="480" height="320" rx="2"/>
    </clipPath>
    <style>
      .ui { font-family: "DejaVu Sans", Arial, sans-serif; }
      .white { fill: #ffffff; }
      .cyan { fill: #00ffff; }
      .green { fill: #44ff66; }
      .blue { fill: #0078d4; }
      .dark { fill: #003b73; }
      .center { text-anchor: middle; }
      .right { text-anchor: end; }
    </style>

    <g id="device">
      <rect width="1200" height="800" fill="url(#page-bg)"/>
      <rect x="50" y="40" width="1100" height="720" rx="48" fill="url(#bezel)" filter="url(#shadow)"/>
      <rect x="108" y="68" width="984" height="664" rx="11" fill="#090c10" stroke="#434b54" stroke-width="4"/>
      <circle cx="600" cy="744" r="4.5" fill="#5b6169"/>
    </g>

    <g id="header" class="ui">
      <rect width="480" height="320" class="blue"/>
      <rect x="10" y="58" width="460" height="2" class="cyan"/>

      <rect x="12" y="35" width="7" height="8" rx="2" fill="#32e875"/>
      <rect x="23" y="28" width="7" height="15" rx="2" fill="#32e875"/>
      <rect x="34" y="21" width="7" height="22" rx="2" fill="#32e875"/>
      <rect x="45" y="14" width="7" height="29" rx="2" fill="#32e875"/>
      <text x="60" y="34" font-size="14" class="white">-61 dBm</text>

      <text x="240" y="29" font-size="28" font-weight="700" class="white center">15:05</text>
      <text x="240" y="51" font-size="14" class="white center">21 Jul 2026</text>

      <text x="470" y="21" font-size="18" class="white right">AAC</text>
      <text x="470" y="48" font-size="14" class="green right">48 kbps</text>
    </g>

    <g id="footer" class="ui" fill="none" stroke="#ffffff" stroke-linecap="round" stroke-linejoin="round">
      <!-- Lista -->
      <circle cx="53" cy="291" r="1.5" fill="#ffffff" stroke="none"/>
      <circle cx="53" cy="297" r="1.5" fill="#ffffff" stroke="none"/>
      <circle cx="53" cy="303" r="1.5" fill="#ffffff" stroke="none"/>
      <path d="M58 291h14M58 297h14M58 303h14" stroke-width="2"/>

      <!-- Stop enquanto a rádio está tocando -->
      <rect x="173" y="290" width="14" height="14" rx="1" fill="#ffffff" stroke="none"/>

      <!-- Volume -->
      <path d="M289 294h6l7-6v18l-7-6h-6z" fill="#ffffff" stroke="none"/>
      <path d="M306 292c3 3 3 7 0 10M310 288c6 5 6 13 0 18" stroke-width="2"/>

      <!-- Configurações -->
      <text x="420" y="306" font-size="28" class="white center" fill="#ffffff" stroke="none">⚙</text>
    </g>
  </defs>

  <!-- TELA PRINCIPAL -->
  <g transform="translate(0 0)">
    <use xlink:href="#device"/>
    <g transform="translate(120 80) scale(2)" clip-path="url(#screen-clip)">
      <use xlink:href="#header"/>
      <g class="ui">
        <text x="240" y="139" font-size="24" class="white center">STEVE MILLER BAND</text>
        <rect x="90" y="177" width="300" height="2" class="cyan"/>
        <text x="240" y="221" font-size="20" class="cyan center">JET AIRLINER</text>
      </g>
      <use xlink:href="#footer"/>
    </g>
  </g>

  <!-- LISTA DE ESTAÇÕES -->
  <g transform="translate(0 800)">
    <use xlink:href="#device"/>
    <g transform="translate(120 80) scale(2)" clip-path="url(#screen-clip)" class="ui">
      <use xlink:href="#header"/>
      <rect y="60" width="480" height="260" class="blue"/>
      <text x="240" y="91" font-size="20" class="white center">ESTACOES</text>
      <text x="445" y="95" font-size="25" class="white center">×</text>

      <rect x="10" y="105" width="460" height="44" class="blue"/>
      <text x="28" y="134" font-size="18" class="white">1 - RADIO CIDADE</text>

      <rect x="10" y="153" width="460" height="44" class="dark"/>
      <text x="28" y="182" font-size="18" class="cyan">2 - ANTENA 1</text>

      <rect x="10" y="201" width="460" height="44" class="blue"/>
      <text x="28" y="230" font-size="18" class="white">3 - CBN</text>

      <rect x="10" y="249" width="460" height="44" class="blue"/>
      <text x="28" y="278" font-size="18" class="white">4 - BAND NEWS FM</text>

      <rect x="10" y="297" width="460" height="44" class="blue"/>
      <text x="28" y="326" font-size="18" class="white">5 - RÁDIO NACIONAL</text>
    </g>
  </g>

  <!-- PAINEL DE VOLUME -->
  <g transform="translate(0 1600)">
    <use xlink:href="#device"/>
    <g transform="translate(120 80) scale(2)" clip-path="url(#screen-clip)" class="ui">
      <use xlink:href="#header"/>
      <rect y="60" width="480" height="260" class="blue"/>
      <text x="240" y="104" font-size="20" class="white center">VOLUME</text>
      <text x="240" y="166" font-size="28" font-weight="700" class="white center">12</text>
      <text x="240" y="204" font-size="18" class="cyan center">57%</text>

      <text x="62" y="263" font-size="28" class="white center">−</text>
      <text x="418" y="263" font-size="28" class="white center">+</text>

      <g>
        <rect x="93" y="243" width="10" height="18" rx="2" class="cyan"/>
        <rect x="107" y="243" width="10" height="18" rx="2" class="cyan"/>
        <rect x="121" y="243" width="10" height="18" rx="2" class="cyan"/>
        <rect x="135" y="243" width="10" height="18" rx="2" class="cyan"/>
        <rect x="149" y="243" width="10" height="18" rx="2" class="cyan"/>
        <rect x="163" y="243" width="10" height="18" rx="2" class="cyan"/>
        <rect x="177" y="243" width="10" height="18" rx="2" class="cyan"/>
        <rect x="191" y="243" width="10" height="18" rx="2" class="cyan"/>
        <rect x="205" y="243" width="10" height="18" rx="2" class="cyan"/>
        <rect x="219" y="243" width="10" height="18" rx="2" class="cyan"/>
        <rect x="233" y="243" width="10" height="18" rx="2" class="cyan"/>
        <rect x="247" y="243" width="10" height="18" rx="2" class="cyan"/>
        <rect x="261" y="243" width="10" height="18" rx="2" class="dark"/>
        <rect x="275" y="243" width="10" height="18" rx="2" class="dark"/>
        <rect x="289" y="243" width="10" height="18" rx="2" class="dark"/>
        <rect x="303" y="243" width="10" height="18" rx="2" class="dark"/>
        <rect x="317" y="243" width="10" height="18" rx="2" class="dark"/>
        <rect x="331" y="243" width="10" height="18" rx="2" class="dark"/>
        <rect x="345" y="243" width="10" height="18" rx="2" class="dark"/>
        <rect x="359" y="243" width="10" height="18" rx="2" class="dark"/>
        <rect x="373" y="243" width="10" height="18" rx="2" class="dark"/>
      </g>
    </g>
  </g>

  <!-- CONFIGURAÇÕES -->
  <g transform="translate(0 2400)">
    <use xlink:href="#device"/>
    <g transform="translate(120 80) scale(2)" clip-path="url(#screen-clip)" class="ui">
      <use xlink:href="#header"/>
      <rect y="82" width="480" height="238" class="blue"/>
      <text x="240" y="113" font-size="20" class="white center">CONFIGURACOES</text>
      <text x="445" y="117" font-size="25" class="white center">×</text>
      <rect x="90" y="130" width="300" height="2" class="cyan"/>

      <text x="25" y="179" font-size="18" class="white">BRILHO</text>
      <text x="270" y="179" font-size="24" class="white center">−</text>
      <text x="345" y="179" font-size="18" class="cyan center">70%</text>
      <text x="420" y="179" font-size="24" class="white center">+</text>

      <text x="25" y="245" font-size="18" class="white">FECHAR VOLUME</text>
      <text x="270" y="245" font-size="24" class="white center">−</text>
      <text x="345" y="245" font-size="18" class="cyan center">5s</text>
      <text x="420" y="245" font-size="24" class="white center">+</text>

      <text x="240" y="304" font-size="18" class="white center">SISTEMA  &gt;</text>
    </g>
  </g>

  <!-- INFORMAÇÕES DO SISTEMA -->
  <g transform="translate(0 3200)">
    <use xlink:href="#device"/>
    <g transform="translate(120 80) scale(2)" clip-path="url(#screen-clip)" class="ui">
      <use xlink:href="#header"/>
      <rect y="82" width="480" height="238" class="blue"/>
      <text x="35" y="117" font-size="24" class="white center">‹</text>
      <text x="240" y="113" font-size="20" class="white center">SISTEMA</text>
      <rect x="90" y="130" width="300" height="2" class="cyan"/>

      <text x="240" y="165" font-size="18" class="white center">Versao: 1.0.1</text>
      <text x="240" y="213" font-size="18" class="white center">Wi-Fi: MinhaRede</text>
      <text x="240" y="237" font-size="18" class="white center">IP: 192.168.1.45</text>
      <text x="240" y="261" font-size="18" class="white center">Memoria livre: 178 KB</text>
      <text x="240" y="285" font-size="18" class="white center">Ligado: 2h 14min</text>
    </g>
  </g>
</svg>
